<mxfile host="65bd71144e">
    <diagram name="Single-Agent" id="Hu4GAn2WkMV0fB7VGXdl">
        <mxGraphModel dx="3737" dy="992" grid="1" gridSize="10" guides="1" tooltips="1" connect="1" arrows="1" fold="1" page="1" pageScale="1" pageWidth="1600" pageHeight="900" background="#FFFFFF" math="0" shadow="0">
            <root>
                <mxCell id="0"/>
                <mxCell id="1" parent="0"/>
                <mxCell id="OslUcd5MNPvzXtjttzsn-94" value="" style="swimlane;startSize=0;" parent="1" vertex="1">
                    <mxGeometry x="-1560" y="30" width="1180" height="425" as="geometry">
                        <mxRectangle x="-190" y="215" width="50" height="40" as="alternateBounds"/>
                    </mxGeometry>
                </mxCell>
                <mxCell id="OslUcd5MNPvzXtjttzsn-96" value="Module 1: Single AI Agent on EKS" style="text;html=1;align=center;verticalAlign=middle;whiteSpace=wrap;rounded=0;fontStyle=1" parent="OslUcd5MNPvzXtjttzsn-94" vertex="1">
                    <mxGeometry x="20" y="10" width="260" height="35" as="geometry"/>
                </mxCell>
                <mxCell id="OslUcd5MNPvzXtjttzsn-48" style="edgeStyle=orthogonalEdgeStyle;rounded=0;orthogonalLoop=1;jettySize=auto;html=1;entryX=0;entryY=0.5;entryDx=0;entryDy=0;" parent="OslUcd5MNPvzXtjttzsn-94" source="OslUcd5MNPvzXtjttzsn-1" target="OslUcd5MNPvzXtjttzsn-6" edge="1">
                    <mxGeometry relative="1" as="geometry"/>
                </mxCell>
                <mxCell id="OslUcd5MNPvzXtjttzsn-1" value="Alice" style="shape=umlActor;verticalLabelPosition=bottom;verticalAlign=top;html=1;outlineConnect=0;" parent="OslUcd5MNPvzXtjttzsn-94" vertex="1">
                    <mxGeometry x="40" y="320" width="30" height="60" as="geometry"/>
                </mxCell>
                <mxCell id="OslUcd5MNPvzXtjttzsn-2" value="Weather&lt;div&gt;Frontend&lt;/div&gt;&lt;div&gt;gradio&lt;/div&gt;" style="rounded=1;whiteSpace=wrap;html=1;" parent="OslUcd5MNPvzXtjttzsn-94" vertex="1">
                    <mxGeometry x="480" y="320" width="120" height="60" as="geometry"/>
                </mxCell>
                <mxCell id="OslUcd5MNPvzXtjttzsn-4" value="" style="rounded=1;whiteSpace=wrap;html=1;" parent="OslUcd5MNPvzXtjttzsn-94" vertex="1">
                    <mxGeometry x="660" y="280" width="280" height="100" as="geometry"/>
                </mxCell>
                <mxCell id="OslUcd5MNPvzXtjttzsn-5" value="Weather&lt;div&gt;MCP&lt;/div&gt;&lt;div&gt;Server&lt;/div&gt;" style="rounded=1;whiteSpace=wrap;html=1;" parent="OslUcd5MNPvzXtjttzsn-94" vertex="1">
                    <mxGeometry x="1010" y="320" width="120" height="60" as="geometry"/>
                </mxCell>
                <mxCell id="OslUcd5MNPvzXtjttzsn-49" style="edgeStyle=orthogonalEdgeStyle;rounded=0;orthogonalLoop=1;jettySize=auto;html=1;entryX=0;entryY=0.5;entryDx=0;entryDy=0;" parent="OslUcd5MNPvzXtjttzsn-94" source="OslUcd5MNPvzXtjttzsn-6" target="OslUcd5MNPvzXtjttzsn-2" edge="1">
                    <mxGeometry relative="1" as="geometry"/>
                </mxCell>
                <mxCell id="OslUcd5MNPvzXtjttzsn-50" style="edgeStyle=orthogonalEdgeStyle;rounded=0;orthogonalLoop=1;jettySize=auto;html=1;exitX=0.5;exitY=0;exitDx=0;exitDy=0;" parent="OslUcd5MNPvzXtjttzsn-94" source="OslUcd5MNPvzXtjttzsn-6" target="OslUcd5MNPvzXtjttzsn-42" edge="1">
                    <mxGeometry relative="1" as="geometry"/>
                </mxCell>
                <mxCell id="OslUcd5MNPvzXtjttzsn-6" value="Browser&lt;div&gt;weather.example.com&lt;/div&gt;" style="rounded=1;whiteSpace=wrap;html=1;" parent="OslUcd5MNPvzXtjttzsn-94" vertex="1">
                    <mxGeometry x="310" y="320" width="120" height="60" as="geometry"/>
                </mxCell>
                <mxCell id="OslUcd5MNPvzXtjttzsn-11" value="" style="rounded=1;whiteSpace=wrap;html=1;" parent="OslUcd5MNPvzXtjttzsn-94" vertex="1">
                    <mxGeometry x="450" y="160" width="190" height="90" as="geometry"/>
                </mxCell>
                <mxCell id="OslUcd5MNPvzXtjttzsn-13" value="Weather&lt;div&gt;Agent&lt;/div&gt;" style="text;html=1;align=center;verticalAlign=middle;whiteSpace=wrap;rounded=0;" parent="OslUcd5MNPvzXtjttzsn-94" vertex="1">
                    <mxGeometry x="770" y="290" width="60" height="30" as="geometry"/>
                </mxCell>
                <mxCell id="OslUcd5MNPvzXtjttzsn-53" style="edgeStyle=orthogonalEdgeStyle;rounded=0;orthogonalLoop=1;jettySize=auto;html=1;entryX=1;entryY=0.25;entryDx=0;entryDy=0;exitX=0.5;exitY=0;exitDx=0;exitDy=0;" parent="OslUcd5MNPvzXtjttzsn-94" source="OslUcd5MNPvzXtjttzsn-14" target="OslUcd5MNPvzXtjttzsn-43" edge="1">
                    <mxGeometry relative="1" as="geometry"/>
                </mxCell>
                <mxCell id="OslUcd5MNPvzXtjttzsn-14" value="REST API" style="rounded=0;whiteSpace=wrap;html=1;" parent="OslUcd5MNPvzXtjttzsn-94" vertex="1">
                    <mxGeometry x="670" y="330" width="80" height="40" as="geometry"/>
                </mxCell>
                <mxCell id="OslUcd5MNPvzXtjttzsn-15" value="A2A&lt;div&gt;Server&lt;/div&gt;" style="rounded=0;whiteSpace=wrap;html=1;" parent="OslUcd5MNPvzXtjttzsn-94" vertex="1">
                    <mxGeometry x="760" y="330" width="80" height="40" as="geometry"/>
                </mxCell>
                <mxCell id="OslUcd5MNPvzXtjttzsn-93" style="edgeStyle=orthogonalEdgeStyle;rounded=0;orthogonalLoop=1;jettySize=auto;html=1;entryX=0;entryY=0.5;entryDx=0;entryDy=0;" parent="OslUcd5MNPvzXtjttzsn-94" source="OslUcd5MNPvzXtjttzsn-24" target="OslUcd5MNPvzXtjttzsn-5" edge="1">
                    <mxGeometry relative="1" as="geometry"/>
                </mxCell>
                <mxCell id="OslUcd5MNPvzXtjttzsn-24" value="MCP&lt;div&gt;Client&lt;/div&gt;" style="rounded=0;whiteSpace=wrap;html=1;" parent="OslUcd5MNPvzXtjttzsn-94" vertex="1">
                    <mxGeometry x="850" y="330" width="80" height="40" as="geometry"/>
                </mxCell>
                <mxCell id="OslUcd5MNPvzXtjttzsn-36" value="What&#39;s the weather in San Francisco?" style="text;html=1;align=center;verticalAlign=middle;whiteSpace=wrap;rounded=0;" parent="OslUcd5MNPvzXtjttzsn-94" vertex="1">
                    <mxGeometry x="90" y="310" width="210" height="30" as="geometry"/>
                </mxCell>
                <mxCell id="OslUcd5MNPvzXtjttzsn-40" value="OIDC&lt;div&gt;Amazon Cognito&lt;/div&gt;" style="text;html=1;align=center;verticalAlign=middle;whiteSpace=wrap;rounded=0;" parent="OslUcd5MNPvzXtjttzsn-94" vertex="1">
                    <mxGeometry x="495" y="166" width="100" height="30" as="geometry"/>
                </mxCell>
                <mxCell id="OslUcd5MNPvzXtjttzsn-42" value="get_token" style="rounded=0;whiteSpace=wrap;html=1;" parent="OslUcd5MNPvzXtjttzsn-94" vertex="1">
                    <mxGeometry x="460" y="200" width="80" height="40" as="geometry"/>
                </mxCell>
                <mxCell id="OslUcd5MNPvzXtjttzsn-43" value="validate_token" style="rounded=0;whiteSpace=wrap;html=1;" parent="OslUcd5MNPvzXtjttzsn-94" vertex="1">
                    <mxGeometry x="550" y="200" width="80" height="40" as="geometry"/>
                </mxCell>
                <mxCell id="OslUcd5MNPvzXtjttzsn-44" value="" style="shape=cylinder3;whiteSpace=wrap;html=1;boundedLbl=1;backgroundOutline=1;size=15;" parent="OslUcd5MNPvzXtjttzsn-94" vertex="1">
                    <mxGeometry x="775" y="70" width="215" height="167" as="geometry"/>
                </mxCell>
                <mxCell id="OslUcd5MNPvzXtjttzsn-45" value="alice-1234: converstaion_history" style="rounded=0;whiteSpace=wrap;html=1;align=left;" parent="OslUcd5MNPvzXtjttzsn-94" vertex="1">
                    <mxGeometry x="787.5" y="150" width="190" height="30" as="geometry"/>
                </mxCell>
                <mxCell id="OslUcd5MNPvzXtjttzsn-51" style="edgeStyle=orthogonalEdgeStyle;rounded=0;orthogonalLoop=1;jettySize=auto;html=1;entryX=0.423;entryY=0.946;entryDx=0;entryDy=0;entryPerimeter=0;" parent="OslUcd5MNPvzXtjttzsn-94" source="OslUcd5MNPvzXtjttzsn-2" target="OslUcd5MNPvzXtjttzsn-43" edge="1">
                    <mxGeometry relative="1" as="geometry">
                        <mxPoint x="550" y="300" as="targetPoint"/>
                    </mxGeometry>
                </mxCell>
                <mxCell id="OslUcd5MNPvzXtjttzsn-52" style="edgeStyle=orthogonalEdgeStyle;rounded=0;orthogonalLoop=1;jettySize=auto;html=1;entryX=0;entryY=0.5;entryDx=0;entryDy=0;" parent="OslUcd5MNPvzXtjttzsn-94" source="OslUcd5MNPvzXtjttzsn-2" target="OslUcd5MNPvzXtjttzsn-14" edge="1">
                    <mxGeometry relative="1" as="geometry"/>
                </mxCell>
                <mxCell id="OslUcd5MNPvzXtjttzsn-60" style="edgeStyle=orthogonalEdgeStyle;rounded=0;orthogonalLoop=1;jettySize=auto;html=1;entryX=0.003;entryY=0.574;entryDx=0;entryDy=0;entryPerimeter=0;exitX=0.75;exitY=0;exitDx=0;exitDy=0;" parent="OslUcd5MNPvzXtjttzsn-94" source="OslUcd5MNPvzXtjttzsn-14" target="OslUcd5MNPvzXtjttzsn-44" edge="1">
                    <mxGeometry relative="1" as="geometry"/>
                </mxCell>
                <mxCell id="OslUcd5MNPvzXtjttzsn-66" value="state db (weather-agent)&lt;div&gt;Dynamdb&lt;/div&gt;" style="text;html=1;align=center;verticalAlign=middle;whiteSpace=wrap;rounded=0;" parent="OslUcd5MNPvzXtjttzsn-94" vertex="1">
                    <mxGeometry x="813.75" y="110" width="152.5" height="30" as="geometry"/>
                </mxCell>
                <mxCell id="oOv9zxLDhN3-ki7q_mjV-1" value="" style="swimlane;startSize=0;" vertex="1" parent="1">
                    <mxGeometry x="-1560" y="510" width="1180" height="1020" as="geometry">
                        <mxRectangle x="-1560" y="510" width="50" height="40" as="alternateBounds"/>
                    </mxGeometry>
                </mxCell>
                <mxCell id="oOv9zxLDhN3-ki7q_mjV-2" value="Module 2: Multi-Agent on EKS" style="text;html=1;align=left;verticalAlign=middle;whiteSpace=wrap;rounded=0;fontStyle=1" vertex="1" parent="oOv9zxLDhN3-ki7q_mjV-1">
                    <mxGeometry x="20" y="20" width="260" height="35" as="geometry"/>
                </mxCell>
                <mxCell id="oOv9zxLDhN3-ki7q_mjV-3" value="Travel&lt;br&gt;&lt;div&gt;Frontend&lt;/div&gt;&lt;div&gt;gradio&lt;/div&gt;" style="rounded=1;whiteSpace=wrap;html=1;" vertex="1" parent="oOv9zxLDhN3-ki7q_mjV-1">
                    <mxGeometry x="480" y="590" width="120" height="60" as="geometry"/>
                </mxCell>
                <mxCell id="oOv9zxLDhN3-ki7q_mjV-4" value="" style="rounded=1;whiteSpace=wrap;html=1;" vertex="1" parent="oOv9zxLDhN3-ki7q_mjV-1">
                    <mxGeometry x="655" y="230" width="280" height="100" as="geometry"/>
                </mxCell>
                <mxCell id="oOv9zxLDhN3-ki7q_mjV-5" value="Weather&lt;div&gt;MCP&lt;/div&gt;&lt;div&gt;Server&lt;/div&gt;" style="rounded=1;whiteSpace=wrap;html=1;" vertex="1" parent="oOv9zxLDhN3-ki7q_mjV-1">
                    <mxGeometry x="1005" y="270" width="120" height="60" as="geometry"/>
                </mxCell>
                <mxCell id="oOv9zxLDhN3-ki7q_mjV-6" style="edgeStyle=orthogonalEdgeStyle;rounded=0;orthogonalLoop=1;jettySize=auto;html=1;entryX=0;entryY=0.5;entryDx=0;entryDy=0;" edge="1" parent="oOv9zxLDhN3-ki7q_mjV-1" source="oOv9zxLDhN3-ki7q_mjV-7" target="oOv9zxLDhN3-ki7q_mjV-3">
                    <mxGeometry relative="1" as="geometry"/>
                </mxCell>
                <mxCell id="oOv9zxLDhN3-ki7q_mjV-7" value="Browser&lt;div&gt;travel.example.com&lt;/div&gt;" style="rounded=1;whiteSpace=wrap;html=1;" vertex="1" parent="oOv9zxLDhN3-ki7q_mjV-1">
                    <mxGeometry x="310" y="590" width="120" height="60" as="geometry"/>
                </mxCell>
                <mxCell id="oOv9zxLDhN3-ki7q_mjV-8" value="" style="rounded=1;whiteSpace=wrap;html=1;" vertex="1" parent="oOv9zxLDhN3-ki7q_mjV-1">
                    <mxGeometry x="445" y="110" width="190" height="90" as="geometry"/>
                </mxCell>
                <mxCell id="oOv9zxLDhN3-ki7q_mjV-9" value="Weather&lt;div&gt;Agent&lt;/div&gt;" style="text;html=1;align=center;verticalAlign=middle;whiteSpace=wrap;rounded=0;" vertex="1" parent="oOv9zxLDhN3-ki7q_mjV-1">
                    <mxGeometry x="765" y="240" width="60" height="30" as="geometry"/>
                </mxCell>
                <mxCell id="oOv9zxLDhN3-ki7q_mjV-10" value="REST API" style="rounded=0;whiteSpace=wrap;html=1;" vertex="1" parent="oOv9zxLDhN3-ki7q_mjV-1">
                    <mxGeometry x="665" y="280" width="80" height="40" as="geometry"/>
                </mxCell>
                <mxCell id="oOv9zxLDhN3-ki7q_mjV-11" value="A2A&lt;div&gt;Server&lt;/div&gt;" style="rounded=0;whiteSpace=wrap;html=1;" vertex="1" parent="oOv9zxLDhN3-ki7q_mjV-1">
                    <mxGeometry x="755" y="280" width="80" height="40" as="geometry"/>
                </mxCell>
                <mxCell id="oOv9zxLDhN3-ki7q_mjV-12" value="" style="rounded=1;whiteSpace=wrap;html=1;" vertex="1" parent="oOv9zxLDhN3-ki7q_mjV-1">
                    <mxGeometry x="660" y="550" width="290" height="100" as="geometry"/>
                </mxCell>
                <mxCell id="oOv9zxLDhN3-ki7q_mjV-13" value="Orchestrator&lt;br&gt;&lt;div&gt;Agent&lt;/div&gt;" style="text;html=1;align=center;verticalAlign=middle;whiteSpace=wrap;rounded=0;" vertex="1" parent="oOv9zxLDhN3-ki7q_mjV-1">
                    <mxGeometry x="715" y="560" width="60" height="30" as="geometry"/>
                </mxCell>
                <mxCell id="oOv9zxLDhN3-ki7q_mjV-14" value="REST API" style="rounded=0;whiteSpace=wrap;html=1;" vertex="1" parent="oOv9zxLDhN3-ki7q_mjV-1">
                    <mxGeometry x="670" y="600" width="80" height="40" as="geometry"/>
                </mxCell>
                <mxCell id="oOv9zxLDhN3-ki7q_mjV-15" style="edgeStyle=orthogonalEdgeStyle;rounded=0;orthogonalLoop=1;jettySize=auto;html=1;entryX=0.75;entryY=1;entryDx=0;entryDy=0;exitX=0.745;exitY=-0.07;exitDx=0;exitDy=0;exitPerimeter=0;" edge="1" parent="oOv9zxLDhN3-ki7q_mjV-1" source="oOv9zxLDhN3-ki7q_mjV-16" target="oOv9zxLDhN3-ki7q_mjV-11">
                    <mxGeometry relative="1" as="geometry"/>
                </mxCell>
                <mxCell id="oOv9zxLDhN3-ki7q_mjV-16" value="A2A&lt;div&gt;Client&lt;/div&gt;" style="rounded=0;whiteSpace=wrap;html=1;" vertex="1" parent="oOv9zxLDhN3-ki7q_mjV-1">
                    <mxGeometry x="760" y="600" width="80" height="40" as="geometry"/>
                </mxCell>
                <mxCell id="oOv9zxLDhN3-ki7q_mjV-17" style="edgeStyle=orthogonalEdgeStyle;rounded=0;orthogonalLoop=1;jettySize=auto;html=1;entryX=0;entryY=0.5;entryDx=0;entryDy=0;" edge="1" parent="oOv9zxLDhN3-ki7q_mjV-1" source="oOv9zxLDhN3-ki7q_mjV-18" target="oOv9zxLDhN3-ki7q_mjV-5">
                    <mxGeometry relative="1" as="geometry"/>
                </mxCell>
                <mxCell id="oOv9zxLDhN3-ki7q_mjV-18" value="MCP&lt;div&gt;Client&lt;/div&gt;" style="rounded=0;whiteSpace=wrap;html=1;" vertex="1" parent="oOv9zxLDhN3-ki7q_mjV-1">
                    <mxGeometry x="845" y="280" width="80" height="40" as="geometry"/>
                </mxCell>
                <mxCell id="oOv9zxLDhN3-ki7q_mjV-19" value="" style="rounded=1;whiteSpace=wrap;html=1;" vertex="1" parent="oOv9zxLDhN3-ki7q_mjV-1">
                    <mxGeometry x="650" y="750" width="290" height="250" as="geometry"/>
                </mxCell>
                <mxCell id="oOv9zxLDhN3-ki7q_mjV-20" value="CityMapper&lt;div&gt;Agent&lt;/div&gt;" style="text;html=1;align=center;verticalAlign=middle;whiteSpace=wrap;rounded=0;" vertex="1" parent="oOv9zxLDhN3-ki7q_mjV-1">
                    <mxGeometry x="705" y="760" width="60" height="30" as="geometry"/>
                </mxCell>
                <mxCell id="oOv9zxLDhN3-ki7q_mjV-21" value="A2A&lt;div&gt;Server&lt;/div&gt;" style="rounded=0;whiteSpace=wrap;html=1;" vertex="1" parent="oOv9zxLDhN3-ki7q_mjV-1">
                    <mxGeometry x="750" y="800" width="80" height="40" as="geometry"/>
                </mxCell>
                <mxCell id="oOv9zxLDhN3-ki7q_mjV-22" value="Activities&lt;br&gt;&lt;div&gt;MCP&lt;/div&gt;&lt;div&gt;Server&lt;/div&gt;" style="rounded=1;whiteSpace=wrap;html=1;" vertex="1" parent="oOv9zxLDhN3-ki7q_mjV-1">
                    <mxGeometry x="1012" y="820" width="120" height="60" as="geometry"/>
                </mxCell>
                <mxCell id="oOv9zxLDhN3-ki7q_mjV-23" value="Mapper&lt;br&gt;&lt;div&gt;MCP&lt;/div&gt;&lt;div&gt;Server&lt;/div&gt;" style="rounded=1;whiteSpace=wrap;html=1;" vertex="1" parent="oOv9zxLDhN3-ki7q_mjV-1">
                    <mxGeometry x="1012" y="890" width="120" height="60" as="geometry"/>
                </mxCell>
                <mxCell id="oOv9zxLDhN3-ki7q_mjV-24" value="I&#39;m going to San Francisco for the next 5 days, recommend a travel plan for places to visit taking into account the weather condition." style="text;html=1;align=center;verticalAlign=middle;whiteSpace=wrap;rounded=0;fontStyle=1" vertex="1" parent="oOv9zxLDhN3-ki7q_mjV-1">
                    <mxGeometry x="75" y="530" width="225" height="90" as="geometry"/>
                </mxCell>
                <mxCell id="oOv9zxLDhN3-ki7q_mjV-25" style="edgeStyle=orthogonalEdgeStyle;rounded=0;orthogonalLoop=1;jettySize=auto;html=1;entryX=0;entryY=0.5;entryDx=0;entryDy=0;" edge="1" parent="oOv9zxLDhN3-ki7q_mjV-1" source="oOv9zxLDhN3-ki7q_mjV-26" target="oOv9zxLDhN3-ki7q_mjV-7">
                    <mxGeometry relative="1" as="geometry"/>
                </mxCell>
                <mxCell id="oOv9zxLDhN3-ki7q_mjV-26" value="Bob" style="shape=umlActor;verticalLabelPosition=bottom;verticalAlign=top;html=1;outlineConnect=0;" vertex="1" parent="oOv9zxLDhN3-ki7q_mjV-1">
                    <mxGeometry x="40" y="590" width="30" height="60" as="geometry"/>
                </mxCell>
                <mxCell id="oOv9zxLDhN3-ki7q_mjV-27" value="OIDC&lt;div&gt;Amazon Cognito&lt;/div&gt;" style="text;html=1;align=center;verticalAlign=middle;whiteSpace=wrap;rounded=0;" vertex="1" parent="oOv9zxLDhN3-ki7q_mjV-1">
                    <mxGeometry x="490" y="116" width="100" height="30" as="geometry"/>
                </mxCell>
                <mxCell id="oOv9zxLDhN3-ki7q_mjV-28" value="get_token" style="rounded=0;whiteSpace=wrap;html=1;" vertex="1" parent="oOv9zxLDhN3-ki7q_mjV-1">
                    <mxGeometry x="455" y="150" width="80" height="40" as="geometry"/>
                </mxCell>
                <mxCell id="oOv9zxLDhN3-ki7q_mjV-29" value="validate_token" style="rounded=0;whiteSpace=wrap;html=1;" vertex="1" parent="oOv9zxLDhN3-ki7q_mjV-1">
                    <mxGeometry x="545" y="150" width="80" height="40" as="geometry"/>
                </mxCell>
                <mxCell id="oOv9zxLDhN3-ki7q_mjV-30" value="" style="shape=cylinder3;whiteSpace=wrap;html=1;boundedLbl=1;backgroundOutline=1;size=15;" vertex="1" parent="oOv9zxLDhN3-ki7q_mjV-1">
                    <mxGeometry x="770" y="20" width="215" height="167" as="geometry"/>
                </mxCell>
                <mxCell id="oOv9zxLDhN3-ki7q_mjV-31" value="alice-1234: converstaion_history" style="rounded=0;whiteSpace=wrap;html=1;align=left;" vertex="1" parent="oOv9zxLDhN3-ki7q_mjV-1">
                    <mxGeometry x="782.5" y="100" width="190" height="30" as="geometry"/>
                </mxCell>
                <mxCell id="oOv9zxLDhN3-ki7q_mjV-32" style="edgeStyle=orthogonalEdgeStyle;rounded=0;orthogonalLoop=1;jettySize=auto;html=1;" edge="1" parent="oOv9zxLDhN3-ki7q_mjV-1" source="oOv9zxLDhN3-ki7q_mjV-3" target="oOv9zxLDhN3-ki7q_mjV-14">
                    <mxGeometry relative="1" as="geometry"/>
                </mxCell>
                <mxCell id="oOv9zxLDhN3-ki7q_mjV-33" style="edgeStyle=orthogonalEdgeStyle;rounded=0;orthogonalLoop=1;jettySize=auto;html=1;entryX=0.834;entryY=0.961;entryDx=0;entryDy=0;entryPerimeter=0;" edge="1" parent="oOv9zxLDhN3-ki7q_mjV-1" source="oOv9zxLDhN3-ki7q_mjV-14" target="oOv9zxLDhN3-ki7q_mjV-29">
                    <mxGeometry relative="1" as="geometry">
                        <Array as="points">
                            <mxPoint x="705" y="470"/>
                            <mxPoint x="612" y="470"/>
                        </Array>
                    </mxGeometry>
                </mxCell>
                <mxCell id="oOv9zxLDhN3-ki7q_mjV-34" style="edgeStyle=orthogonalEdgeStyle;rounded=0;orthogonalLoop=1;jettySize=auto;html=1;entryX=0;entryY=0.5;entryDx=0;entryDy=0;exitX=0.75;exitY=0;exitDx=0;exitDy=0;" edge="1" parent="oOv9zxLDhN3-ki7q_mjV-1" source="oOv9zxLDhN3-ki7q_mjV-7" target="oOv9zxLDhN3-ki7q_mjV-28">
                    <mxGeometry relative="1" as="geometry">
                        <Array as="points">
                            <mxPoint x="395" y="420"/>
                            <mxPoint x="435" y="420"/>
                            <mxPoint x="435" y="170"/>
                        </Array>
                    </mxGeometry>
                </mxCell>
                <mxCell id="oOv9zxLDhN3-ki7q_mjV-35" style="edgeStyle=orthogonalEdgeStyle;rounded=0;orthogonalLoop=1;jettySize=auto;html=1;entryX=0.003;entryY=0.574;entryDx=0;entryDy=0;entryPerimeter=0;exitX=0.75;exitY=0;exitDx=0;exitDy=0;" edge="1" parent="oOv9zxLDhN3-ki7q_mjV-1" source="oOv9zxLDhN3-ki7q_mjV-10" target="oOv9zxLDhN3-ki7q_mjV-30">
                    <mxGeometry relative="1" as="geometry"/>
                </mxCell>
                <mxCell id="oOv9zxLDhN3-ki7q_mjV-36" value="" style="shape=cylinder3;whiteSpace=wrap;html=1;boundedLbl=1;backgroundOutline=1;size=15;" vertex="1" parent="oOv9zxLDhN3-ki7q_mjV-1">
                    <mxGeometry x="350" y="730" width="215" height="167" as="geometry"/>
                </mxCell>
                <mxCell id="oOv9zxLDhN3-ki7q_mjV-37" value="bob-5678: converstaion_history" style="rounded=0;whiteSpace=wrap;html=1;align=left;" vertex="1" parent="oOv9zxLDhN3-ki7q_mjV-1">
                    <mxGeometry x="362.5" y="850" width="190" height="30" as="geometry"/>
                </mxCell>
                <mxCell id="oOv9zxLDhN3-ki7q_mjV-38" value="state db (orchestrator agent)&lt;div&gt;Dynamdb&lt;/div&gt;" style="text;html=1;align=center;verticalAlign=middle;whiteSpace=wrap;rounded=0;" vertex="1" parent="oOv9zxLDhN3-ki7q_mjV-1">
                    <mxGeometry x="372.5" y="770" width="170" height="30" as="geometry"/>
                </mxCell>
                <mxCell id="oOv9zxLDhN3-ki7q_mjV-39" value="state db (weather-agent)&lt;div&gt;Dynamdb&lt;/div&gt;" style="text;html=1;align=center;verticalAlign=middle;whiteSpace=wrap;rounded=0;" vertex="1" parent="oOv9zxLDhN3-ki7q_mjV-1">
                    <mxGeometry x="808.75" y="60" width="152.5" height="30" as="geometry"/>
                </mxCell>
                <mxCell id="oOv9zxLDhN3-ki7q_mjV-40" style="edgeStyle=orthogonalEdgeStyle;rounded=0;orthogonalLoop=1;jettySize=auto;html=1;entryX=0.521;entryY=-0.011;entryDx=0;entryDy=0;entryPerimeter=0;" edge="1" parent="oOv9zxLDhN3-ki7q_mjV-1" source="oOv9zxLDhN3-ki7q_mjV-14" target="oOv9zxLDhN3-ki7q_mjV-36">
                    <mxGeometry relative="1" as="geometry">
                        <Array as="points">
                            <mxPoint x="710" y="680"/>
                            <mxPoint x="462" y="680"/>
                        </Array>
                    </mxGeometry>
                </mxCell>
                <mxCell id="oOv9zxLDhN3-ki7q_mjV-41" style="edgeStyle=orthogonalEdgeStyle;rounded=0;orthogonalLoop=1;jettySize=auto;html=1;entryX=0.25;entryY=0;entryDx=0;entryDy=0;exitX=0.25;exitY=1;exitDx=0;exitDy=0;" edge="1" parent="oOv9zxLDhN3-ki7q_mjV-1" source="oOv9zxLDhN3-ki7q_mjV-11" target="oOv9zxLDhN3-ki7q_mjV-16">
                    <mxGeometry relative="1" as="geometry"/>
                </mxCell>
                <mxCell id="oOv9zxLDhN3-ki7q_mjV-42" value="Agent&lt;div&gt;Card&lt;/div&gt;" style="whiteSpace=wrap;html=1;aspect=fixed;" vertex="1" parent="oOv9zxLDhN3-ki7q_mjV-1">
                    <mxGeometry x="733" y="490" width="40" height="40" as="geometry"/>
                </mxCell>
                <mxCell id="oOv9zxLDhN3-ki7q_mjV-43" value="Agent&lt;div&gt;Task&lt;/div&gt;" style="whiteSpace=wrap;html=1;aspect=fixed;" vertex="1" parent="oOv9zxLDhN3-ki7q_mjV-1">
                    <mxGeometry x="827" y="469" width="40" height="40" as="geometry"/>
                </mxCell>
                <mxCell id="oOv9zxLDhN3-ki7q_mjV-44" value="1" style="ellipse;whiteSpace=wrap;html=1;aspect=fixed;" vertex="1" parent="oOv9zxLDhN3-ki7q_mjV-1">
                    <mxGeometry x="755" y="460" width="20" height="20" as="geometry"/>
                </mxCell>
                <mxCell id="oOv9zxLDhN3-ki7q_mjV-45" value="2" style="ellipse;whiteSpace=wrap;html=1;aspect=fixed;" vertex="1" parent="oOv9zxLDhN3-ki7q_mjV-1">
                    <mxGeometry x="823" y="520" width="20" height="20" as="geometry"/>
                </mxCell>
                <mxCell id="oOv9zxLDhN3-ki7q_mjV-46" style="edgeStyle=orthogonalEdgeStyle;rounded=0;orthogonalLoop=1;jettySize=auto;html=1;entryX=0.75;entryY=1;entryDx=0;entryDy=0;exitX=0.81;exitY=-0.011;exitDx=0;exitDy=0;exitPerimeter=0;" edge="1" parent="oOv9zxLDhN3-ki7q_mjV-1" source="oOv9zxLDhN3-ki7q_mjV-21">
                    <mxGeometry relative="1" as="geometry">
                        <mxPoint x="815" y="797" as="sourcePoint"/>
                        <mxPoint x="815" y="640" as="targetPoint"/>
                    </mxGeometry>
                </mxCell>
                <mxCell id="oOv9zxLDhN3-ki7q_mjV-47" style="edgeStyle=orthogonalEdgeStyle;rounded=0;orthogonalLoop=1;jettySize=auto;html=1;entryX=0.322;entryY=0.025;entryDx=0;entryDy=0;exitX=0.25;exitY=1;exitDx=0;exitDy=0;entryPerimeter=0;" edge="1" parent="oOv9zxLDhN3-ki7q_mjV-1" target="oOv9zxLDhN3-ki7q_mjV-21">
                    <mxGeometry relative="1" as="geometry">
                        <mxPoint x="775" y="640" as="sourcePoint"/>
                        <mxPoint x="775" y="800" as="targetPoint"/>
                    </mxGeometry>
                </mxCell>
                <mxCell id="oOv9zxLDhN3-ki7q_mjV-48" value="Agent&lt;div&gt;Card&lt;/div&gt;" style="whiteSpace=wrap;html=1;aspect=fixed;" vertex="1" parent="oOv9zxLDhN3-ki7q_mjV-1">
                    <mxGeometry x="728" y="690" width="40" height="40" as="geometry"/>
                </mxCell>
                <mxCell id="oOv9zxLDhN3-ki7q_mjV-49" value="Agent&lt;div&gt;Task&lt;/div&gt;" style="whiteSpace=wrap;html=1;aspect=fixed;" vertex="1" parent="oOv9zxLDhN3-ki7q_mjV-1">
                    <mxGeometry x="822" y="669" width="40" height="40" as="geometry"/>
                </mxCell>
                <mxCell id="oOv9zxLDhN3-ki7q_mjV-50" value="1" style="ellipse;whiteSpace=wrap;html=1;aspect=fixed;" vertex="1" parent="oOv9zxLDhN3-ki7q_mjV-1">
                    <mxGeometry x="750" y="660" width="20" height="20" as="geometry"/>
                </mxCell>
                <mxCell id="oOv9zxLDhN3-ki7q_mjV-51" value="2" style="ellipse;whiteSpace=wrap;html=1;aspect=fixed;" vertex="1" parent="oOv9zxLDhN3-ki7q_mjV-1">
                    <mxGeometry x="818" y="720" width="20" height="20" as="geometry"/>
                </mxCell>
                <mxCell id="oOv9zxLDhN3-ki7q_mjV-52" style="edgeStyle=orthogonalEdgeStyle;rounded=0;orthogonalLoop=1;jettySize=auto;html=1;entryX=0;entryY=0.5;entryDx=0;entryDy=0;" edge="1" parent="oOv9zxLDhN3-ki7q_mjV-1" source="oOv9zxLDhN3-ki7q_mjV-53" target="oOv9zxLDhN3-ki7q_mjV-22">
                    <mxGeometry relative="1" as="geometry"/>
                </mxCell>
                <mxCell id="oOv9zxLDhN3-ki7q_mjV-53" value="MCP&lt;div&gt;Client&lt;/div&gt;" style="rounded=0;whiteSpace=wrap;html=1;" vertex="1" parent="oOv9zxLDhN3-ki7q_mjV-1">
                    <mxGeometry x="840" y="830" width="80" height="40" as="geometry"/>
                </mxCell>
                <mxCell id="oOv9zxLDhN3-ki7q_mjV-54" value="MCP&lt;div&gt;Client&lt;/div&gt;" style="rounded=0;whiteSpace=wrap;html=1;" vertex="1" parent="oOv9zxLDhN3-ki7q_mjV-1">
                    <mxGeometry x="840" y="899" width="80" height="40" as="geometry"/>
                </mxCell>
                <mxCell id="oOv9zxLDhN3-ki7q_mjV-55" style="edgeStyle=orthogonalEdgeStyle;rounded=0;orthogonalLoop=1;jettySize=auto;html=1;entryX=-0.023;entryY=0.482;entryDx=0;entryDy=0;entryPerimeter=0;" edge="1" parent="oOv9zxLDhN3-ki7q_mjV-1" source="oOv9zxLDhN3-ki7q_mjV-54" target="oOv9zxLDhN3-ki7q_mjV-23">
                    <mxGeometry relative="1" as="geometry"/>
                </mxCell>
            </root>
        </mxGraphModel>
    </diagram>
</mxfile>
